<?xml version="1.0" standalone="no"?>
<!DOCTYPE svg PUBLIC "-//W3C//DTD SVG 20010904//EN"
 "http://www.w3.org/TR/2001/REC-SVG-20010904/DTD/svg10.dtd">
<svg version="1.0" xmlns="http://www.w3.org/2000/svg"
 width="506.000000pt" height="506.000000pt" viewBox="0 0 506.000000 506.000000"
 preserveAspectRatio="xMidYMid meet">

<g transform="translate(0.000000,506.000000) scale(0.100000,-0.100000)"
fill="#000000" stroke="none">
<path d="M0 3625 c0 -918 3 -1435 10 -1435 5 0 78 11 163 25 234 38 418 55
690 62 246 6 248 6 242 27 -19 66 -37 167 -31 173 3 4 32 0 63 -8 l57 -14 17
-80 c46 -216 165 -392 342 -510 31 -21 60 -36 62 -33 3 3 -12 16 -32 30 -94
63 -204 190 -252 293 -40 84 -82 255 -64 255 15 0 97 -92 146 -162 106 -151
266 -238 437 -238 90 1 131 12 267 74 149 68 262 106 334 113 l56 6 12 -33
c12 -35 14 -101 5 -136 -3 -12 -18 -24 -37 -30 -18 -5 -38 -21 -47 -37 -14
-27 -14 -29 13 -53 16 -13 32 -22 37 -19 15 9 21 -14 10 -35 -6 -12 -21 -20
-37 -20 -41 0 -101 -21 -120 -43 -17 -19 -17 -19 2 -14 11 3 45 9 76 12 l56 7
15 -39 c25 -62 30 -100 23 -164 l-7 -59 -77 0 c-159 0 -395 36 -564 87 -75 23
-90 24 -98 12 -16 -26 -3 -34 68 -40 69 -7 165 -30 192 -48 12 -8 9 -15 -14
-42 l-28 -34 109 -17 c132 -22 217 -48 304 -94 99 -53 106 -59 92 -89 l-12
-26 -33 24 c-109 82 -306 143 -484 148 -73 3 -78 12 -38 71 l24 36 -27 6 c-15
3 -75 9 -134 12 -121 8 -120 7 -93 84 8 23 15 44 15 46 0 2 -35 21 -77 43
-165 83 -336 230 -413 354 -41 67 -33 66 -253 41 -308 -33 -600 -93 -884 -181
l-83 -25 0 -954 0 -954 2530 0 2530 0 0 2530 0 2530 -965 0 c-765 0 -965 -3
-965 -12 0 -7 42 -89 93 -183 l92 -170 50 -5 c46 -5 50 -7 47 -30 -8 -54 -5
-96 8 -126 12 -28 11 -36 -13 -84 -20 -39 -27 -69 -27 -110 l0 -55 -67 -58
c-38 -32 -77 -57 -89 -57 -38 0 -54 -11 -54 -36 0 -30 62 -99 111 -125 52 -26
57 -49 21 -101 -33 -48 -62 -125 -62 -166 0 -34 -16 -60 -28 -47 -5 6 -30 56
-56 113 -51 109 -51 114 -31 248 6 37 3 44 -27 76 -18 19 -40 38 -48 41 -12 5
-12 8 4 18 11 7 34 27 50 45 17 17 51 42 76 54 50 25 134 101 155 141 24 44
-5 65 -166 118 -93 31 -124 67 -204 240 -67 144 -78 187 -61 244 l8 27 -1456
0 -1456 0 0 -1435z m2235 483 c154 -55 265 -111 286 -144 18 -30 47 -55 93
-79 84 -44 10 -119 -119 -120 -48 0 -81 6 -104 18 -42 21 -42 21 -34 0 11 -32
44 -61 92 -82 34 -14 51 -29 63 -54 44 -91 73 -367 57 -534 -12 -128 -31 -190
-73 -238 l-34 -40 -108 3 c-286 9 -749 91 -1147 204 -67 18 -112 27 -118 21
-12 -12 -61 -230 -57 -255 2 -15 23 -27 83 -49 340 -125 766 -212 1099 -224
71 -3 131 -7 134 -9 10 -10 -45 -100 -93 -151 l-51 -55 -62 0 c-129 0 -438 48
-682 106 -433 103 -671 198 -797 317 -58 55 -83 99 -83 150 0 49 20 63 69 48
42 -12 137 -14 219 -4 44 5 52 9 46 22 -56 130 -81 266 -69 376 l7 67 56 26
c52 25 67 27 186 27 l128 0 33 92 c53 146 73 175 184 264 162 132 382 260 531
311 73 24 172 19 265 -14z m1015 -519 c6 -22 27 -57 46 -78 18 -21 34 -44 34
-51 0 -7 -15 -29 -34 -50 -18 -20 -41 -59 -51 -86 -9 -27 -21 -60 -26 -74 -5
-14 -28 -45 -49 -69 -22 -24 -40 -51 -40 -60 0 -10 -7 -26 -15 -37 -23 -31
-19 -69 11 -89 15 -9 50 -42 79 -72 l52 -55 64 18 c35 9 81 25 101 36 53 26
76 24 85 -9 12 -46 8 -245 -6 -293 -7 -25 -46 -112 -86 -195 -100 -204 -113
-262 -80 -360 9 -24 17 -85 20 -135 l3 -90 -33 0 c-24 0 -35 5 -39 18 -11 33
-47 43 -126 38 -41 -2 -94 -5 -117 -5 -29 -1 -51 -9 -73 -27 -29 -25 -34 -26
-71 -15 -33 10 -40 16 -37 34 2 15 13 23 38 28 44 9 60 32 60 87 0 32 10 63
37 113 l37 69 -27 28 c-15 15 -27 31 -27 35 0 3 16 6 36 5 41 -2 63 19 65 61
1 14 3 33 4 41 1 8 3 23 4 32 2 26 60 88 117 124 85 54 120 94 138 153 22 75
21 126 -4 151 -25 25 -27 25 -92 -5 -29 -14 -62 -25 -73 -25 -22 0 -111 68
-235 180 -59 54 -80 79 -80 97 0 14 30 75 67 137 124 207 245 401 261 419 27
30 50 21 62 -24z m-1162 -2205 c142 -29 277 -87 351 -150 l40 -35 -51 -65
c-40 -51 -56 -65 -72 -61 -12 2 -102 25 -201 51 -375 98 -346 87 -325 126 7
13 6 21 -5 30 -12 10 -12 16 -3 34 7 11 11 27 10 33 -2 7 12 22 30 33 41 25
118 26 226 4z m-310 -154 c0 -22 -7 -36 -28 -52 -28 -20 -29 -22 -15 -56 21
-48 19 -51 -20 -45 -28 5 -35 2 -35 -11 0 -9 12 -22 26 -28 l26 -12 -24 -9
c-22 -8 -22 -9 -4 -22 16 -12 17 -15 4 -20 -8 -3 -19 -5 -24 -4 -26 5 -25 -4
4 -31 42 -38 39 -66 -5 -64 -42 2 -142 49 -150 70 -14 37 100 203 188 273 28
22 53 41 54 41 1 0 2 -14 3 -30z m145 -81 c48 -12 87 -25 87 -29 0 -18 -34
-87 -53 -108 -18 -20 -20 -27 -10 -53 11 -27 10 -30 -5 -24 -38 14 -103 17
-132 5 -45 -19 -36 -27 25 -22 75 6 107 -8 41 -19 -76 -12 -85 -33 -11 -25 33
3 71 8 85 11 15 4 7 -3 -18 -16 -41 -21 -43 -24 -36 -53 16 -69 11 -95 -23
-117 l-33 -21 -46 94 -46 93 5 90 c7 113 41 228 65 221 9 -2 56 -14 105 -27z
m582 -197 c-4 -12 -27 -13 -128 -9 -67 3 -135 9 -152 13 -16 4 -27 4 -24 0 3
-3 46 -15 95 -25 l89 -19 -157 -1 c-86 -1 -159 3 -162 8 -6 8 41 160 53 173 3
3 65 -9 136 -28 72 -19 133 -34 137 -34 4 0 31 30 60 67 l53 67 3 -99 c1 -54
0 -105 -3 -113z m-341 -143 c27 -5 68 -9 92 -9 l44 0 -40 -62 c-22 -33 -40
-68 -40 -77 0 -9 -3 -26 -6 -38 -6 -22 -4 -23 50 -23 45 0 56 3 56 16 0 11 5
14 16 10 60 -23 61 -22 69 46 4 35 13 78 21 96 12 29 17 33 46 30 l33 -3 3
-339 c1 -187 -2 -344 -7 -349 -11 -11 -329 9 -452 29 -124 20 -267 53 -274 64
-4 7 39 296 61 400 4 24 28 46 145 133 l37 28 -14 -67 c-8 -37 -13 -69 -11
-71 2 -2 25 29 51 68 42 62 47 76 41 107 -6 31 -4 34 12 28 10 -4 40 -12 67
-17z m-744 -105 c0 -23 3 -25 33 -22 25 2 33 8 35 26 3 17 8 22 20 17 9 -4 51
-9 92 -11 41 -3 101 -10 133 -16 l59 -11 -4 -46 c-3 -25 -20 -135 -39 -243
l-34 -197 -95 -37 c-52 -21 -100 -42 -106 -46 -14 -10 -24 0 -24 25 0 13 -5
17 -16 13 -9 -3 -24 -6 -35 -6 -12 0 -19 -7 -19 -19 0 -28 -7 -29 -80 -17 -56
9 -65 14 -68 34 -2 12 -10 22 -18 22 -12 0 -14 41 -14 255 0 220 2 255 15 255
9 0 15 9 15 25 0 24 2 25 75 25 74 0 75 0 75 -26z"/>
<path d="M2091 3885 c3 -5 15 -32 28 -60 64 -142 40 -263 -74 -363 -45 -39
-45 -40 -13 -28 61 21 128 67 154 105 50 76 41 162 -27 268 -35 54 -81 106
-68 78z"/>
<path d="M3081 1984 c-27 -34 -19 -44 34 -44 26 0 45 -5 48 -12 3 -10 8 -10
18 1 12 11 11 15 -5 25 -10 6 -31 21 -46 34 l-28 22 -21 -26z"/>
<path d="M600 2239 c-143 -11 -331 -35 -477 -61 l-123 -21 0 -109 c0 -59 2
-108 5 -108 3 0 65 18 137 40 251 76 601 143 893 170 66 7 122 13 124 15 2 2
-5 21 -15 42 l-19 38 -210 1 c-116 1 -257 -2 -315 -7z"/>
</g>
</svg>
